<svg xmlns="http://www.w3.org/2000/svg" viewBox="0 0 512 512">
  <rect width="512" height="512" rx="112" fill="#eef2e9"/>
  <path d="M106 132c0-18 14-32 32-32h108c27 0 49 10 66 29 17-19 39-29 66-29h28v282h-28c-27 0-49 10-66 29-17-19-39-29-66-29H138c-18 0-32-14-32-32V132z" fill="#fffdf8"/>
  <path d="M312 129v282M142 151h91M142 198h91M142 245h91M343 151h32M343 198h32M343 245h32" fill="none" stroke="#39705d" stroke-width="24" stroke-linecap="round"/>
  <circle cx="214" cy="329" r="42" fill="#dca449"/>
  <path d="m194 329 14 14 29-32" fill="none" stroke="#fff" stroke-width="13" stroke-linecap="round" stroke-linejoin="round"/>
</svg>
